<svg xmlns="http://www.w3.org/2000/svg" version="1.1" xmlns:xlink="http://www.w3.org/1999/xlink" xmlns:svgjs="http://svgjs.dev/svgjs" width="1000" height="472" viewBox="0 0 1000 472"><g transform="matrix(1,0,0,1,-0.6060606060606233,0.44811991890105674)"><svg viewBox="0 0 396 187" data-background-color="#0f0e17" preserveAspectRatio="xMidYMid meet" height="472" width="1000" xmlns="http://www.w3.org/2000/svg" xmlns:xlink="http://www.w3.org/1999/xlink"><g id="tight-bounds" transform="matrix(1,0,0,1,0.2400000000000091,-0.1775390356663138)"><svg viewBox="0 0 395.52 187.35507807133263" height="187.35507807133263" width="395.52"><g><svg viewBox="0 0 395.52 187.35507807133263" height="187.35507807133263" width="395.52"><g transform="matrix(1,0,0,1,0,115.79295456104009)"><svg viewBox="0 0 395.52 71.56212351029252" height="71.56212351029252" width="395.52"><g><svg viewBox="0 0 395.52 71.56212351029252" height="71.56212351029252" width="395.52"><g><svg viewBox="0 0 395.52 71.56212351029252" height="71.56212351029252" width="395.52"><g transform="matrix(1,0,0,1,0,0)"><svg width="395.52" viewBox="3.05 -36.21 202.79 36.7" height="71.56212351029252" data-palette-color="#fffffe"><g class="undefined-text-0" data-fill-palette-color="primary" id="text-0"><path d="M20.19-32.5L20.19-32.5Q14.31-32.5 10.9-28.58 7.5-24.66 7.5-17.85L7.5-17.85Q7.5-10.84 10.78-7.02 14.06-3.2 20.14-3.2L20.14-3.2Q23.88-3.2 28.66-4.54L28.66-4.54 28.66-0.9Q24.95 0.49 19.51 0.49L19.51 0.49Q11.62 0.49 7.34-4.3 3.05-9.08 3.05-17.9L3.05-17.9Q3.05-23.41 5.11-27.56 7.18-31.71 11.07-33.96 14.97-36.21 20.24-36.21L20.24-36.21Q25.85-36.21 30.05-34.16L30.05-34.16 28.3-30.59Q24.24-32.5 20.19-32.5ZM56.35 0L36.45 0 36.45-35.69 40.6-35.69 40.6-3.76 56.35-3.76 56.35 0ZM66.55 0L62.4 0 62.4-35.69 66.55-35.69 66.55 0ZM95.48 0L92.13 0 80.02-31.64 79.83-31.64Q80.17-27.88 80.17-22.71L80.17-22.71 80.17 0 76.34 0 76.34-35.69 82.59-35.69 93.89-6.25 94.08-6.25 105.49-35.69 111.69-35.69 111.69 0 107.54 0 107.54-23Q107.54-26.95 107.88-31.59L107.88-31.59 107.68-31.59 95.48 0ZM148.21 0L143.91 0 139.47-11.35 125.16-11.35 120.77 0 116.57 0 130.68-35.84 134.17-35.84 148.21 0ZM126.63-15.09L138.17-15.09 134.02-26.15Q133.22-28.25 132.36-31.3L132.36-31.3Q131.83-28.96 130.82-26.15L130.82-26.15 126.63-15.09ZM175.74-25.29L175.74-25.29Q175.74-19.87 172.05-16.96 168.35-14.04 161.46-14.04L161.46-14.04 157.26-14.04 157.26 0 153.11 0 153.11-35.69 162.37-35.69Q175.74-35.69 175.74-25.29ZM157.26-32.1L157.26-17.6 161-17.6Q166.52-17.6 168.98-19.38 171.45-21.17 171.45-25.1L171.45-25.1Q171.45-28.64 169.13-30.37 166.81-32.1 161.9-32.1L161.9-32.1 157.26-32.1ZM205.84-25.29L205.84-25.29Q205.84-19.87 202.15-16.96 198.45-14.04 191.56-14.04L191.56-14.04 187.36-14.04 187.36 0 183.21 0 183.21-35.69 192.47-35.69Q205.84-35.69 205.84-25.29ZM187.36-32.1L187.36-17.6 191.1-17.6Q196.62-17.6 199.08-19.38 201.55-21.17 201.55-25.1L201.55-25.1Q201.55-28.64 199.23-30.37 196.91-32.1 192-32.1L192-32.1 187.36-32.1Z" fill="#fffffe" data-fill-palette-color="primary"></path></g></svg></g></svg></g></svg></g></svg></g><g transform="matrix(1,0,0,1,98.50382307183433,0)"><svg viewBox="0 0 198.51235385633132 98.89885469122427" height="98.89885469122427" width="198.51235385633132"><g><svg xmlns="http://www.w3.org/2000/svg" xmlns:xlink="http://www.w3.org/1999/xlink" version="1.1" x="0" y="0" viewBox="5 26.237000000000002 90 44.838" enable-background="new 0 0 100 100" xml:space="preserve" height="98.89885469122427" width="198.51235385633132" class="icon-icon-0" data-fill-palette-color="accent" id="icon-0"><path d="M59.02 69.248c-0.188 0-0.38-0.03-0.568-0.094-0.941-0.314-1.45-1.33-1.136-2.271l2.104-6.318c0.314-0.943 1.333-1.45 2.272-1.137 0.94 0.313 1.447 1.33 1.135 2.271l-2.104 6.318C60.473 68.771 59.771 69.248 59.02 69.248z" fill="#f98e54" data-fill-palette-color="accent"></path><path d="M67.441 69.248c-0.187 0-0.379-0.03-0.567-0.094-0.941-0.314-1.449-1.331-1.137-2.271l2.107-6.317c0.314-0.942 1.333-1.45 2.271-1.137 0.942 0.313 1.449 1.332 1.136 2.272l-2.106 6.317C68.894 68.771 68.194 69.248 67.441 69.248z" fill="#f98e54" data-fill-palette-color="accent"></path><path d="M75.864 69.248c-0.188 0-0.378-0.03-0.567-0.094-0.94-0.314-1.449-1.33-1.136-2.271l2.105-6.318c0.313-0.943 1.332-1.45 2.271-1.137 0.941 0.313 1.449 1.33 1.137 2.271l-2.106 6.318C77.318 68.771 76.617 69.248 75.864 69.248z" fill="#f98e54" data-fill-palette-color="accent"></path><path d="M84.289 69.248c-0.189 0-0.381-0.03-0.57-0.094-0.94-0.314-1.449-1.331-1.136-2.271l2.108-6.317c0.315-0.942 1.333-1.45 2.271-1.137 0.94 0.313 1.448 1.332 1.136 2.272l-2.107 6.317C85.74 68.771 85.04 69.248 84.289 69.248z" fill="#f98e54" data-fill-palette-color="accent"></path><path d="M91.771 39.691c-2.04-1.914-4.631-2.987-7.199-3-2.336-3.634-6.778-5.516-10.791-5.516-5.759 0-10.673 3.928-12.044 9.374-4.008 0.291-7.181 3.647-7.181 7.729 0 4.272 3.475 7.748 7.747 7.748h25.507c0.221 0 0.432-0.042 0.627-0.119C92.558 55.244 95 51.79 95 46.576 95 44.127 93.823 41.617 91.771 39.691zM87.611 52.396c-0.074 0.009-0.147 0.021-0.219 0.038H62.304c-2.292 0-4.156-1.863-4.156-4.156 0-2.293 1.864-4.158 4.156-4.158 0.194 0 0.398 0.019 0.621 0.056h0.002c0.463 0.08 1.526 0.434 1.878 1.014 0.338 0.557 0.931 0.865 1.537 0.865 0.318 0 0.639-0.085 0.931-0.261 0.847-0.515 1.117-1.618 0.603-2.467-0.657-1.084-1.686-1.748-2.581-2.146 1.059-3.74 4.481-6.414 8.487-6.414 3.596 0 7.862 2.146 8.687 6.124 0.202 0.971 1.152 1.595 2.124 1.394 0.864-0.179 1.453-0.953 1.431-1.807 1.177 0.3 2.332 0.933 3.289 1.832 1.332 1.251 2.096 2.806 2.096 4.267C91.408 49.039 90.749 52.046 87.611 52.396z" fill="#f98e54" data-fill-palette-color="accent"></path><path d="M27.42 34.125c-0.992 0-1.796-0.804-1.796-1.796v-4.296c0-0.992 0.805-1.796 1.796-1.796 0.993 0 1.796 0.805 1.796 1.796v4.296C29.217 33.321 28.413 34.125 27.42 34.125z" fill="#f98e54" data-fill-palette-color="accent"></path><path d="M11.094 50.451H6.797C5.805 50.451 5 49.646 5 48.655c0-0.992 0.805-1.796 1.796-1.796h4.297c0.993 0 1.796 0.804 1.796 1.796C12.891 49.646 12.087 50.451 11.094 50.451z" fill="#f98e54" data-fill-palette-color="accent"></path><path d="M12.812 65.059c-0.46 0-0.92-0.175-1.27-0.526-0.701-0.701-0.701-1.837 0-2.538l3.437-3.438c0.701-0.701 1.839-0.701 2.54 0 0.701 0.701 0.701 1.838 0 2.539l-3.438 3.437C13.732 64.884 13.271 65.059 12.812 65.059z" fill="#f98e54" data-fill-palette-color="accent"></path><path d="M16.25 39.281c-0.46 0-0.919-0.176-1.27-0.524l-3.437-3.436c-0.701-0.701-0.701-1.839-0.001-2.54 0.701-0.702 1.838-0.702 2.541-0.001l3.438 3.435c0.701 0.701 0.701 1.839 0.001 2.54C17.169 39.105 16.71 39.281 16.25 39.281z" fill="#f98e54" data-fill-palette-color="accent"></path><path d="M27.42 71.075c-0.992 0-1.796-0.805-1.796-1.797l0-4.297c0-0.992 0.804-1.795 1.795-1.795l0 0c0.993 0 1.796 0.805 1.796 1.795l0.001 4.297C29.217 70.271 28.413 71.075 27.42 71.075L27.42 71.075z" fill="#f98e54" data-fill-palette-color="accent"></path><path d="M42.028 65.059c-0.461 0-0.919-0.175-1.271-0.526l-3.436-3.437c-0.701-0.701-0.701-1.838 0-2.539 0.702-0.701 1.84-0.701 2.54 0l3.438 3.438c0.7 0.701 0.7 1.839-0.001 2.538C42.947 64.884 42.487 65.059 42.028 65.059z" fill="#f98e54" data-fill-palette-color="accent"></path><path d="M27.42 34.125c-0.992 0-1.796-0.804-1.796-1.796v-4.296c0-0.992 0.805-1.796 1.796-1.796 0.993 0 1.796 0.805 1.796 1.796v4.296C29.217 33.321 28.413 34.125 27.42 34.125z" fill="#f98e54" data-fill-palette-color="accent"></path><path d="M11.094 50.451H6.797C5.805 50.451 5 49.646 5 48.655c0-0.992 0.805-1.796 1.796-1.796h4.297c0.993 0 1.796 0.804 1.796 1.796C12.891 49.646 12.087 50.451 11.094 50.451z" fill="#f98e54" data-fill-palette-color="accent"></path><path d="M12.812 65.059c-0.46 0-0.92-0.175-1.27-0.526-0.701-0.701-0.701-1.837 0-2.538l3.437-3.438c0.701-0.701 1.839-0.701 2.54 0 0.701 0.701 0.701 1.838 0 2.539l-3.438 3.437C13.732 64.884 13.271 65.059 12.812 65.059z" fill="#f98e54" data-fill-palette-color="accent"></path><path d="M16.25 39.281c-0.46 0-0.919-0.176-1.27-0.524l-3.437-3.436c-0.701-0.701-0.701-1.839-0.001-2.54 0.701-0.702 1.838-0.702 2.541-0.001l3.438 3.435c0.701 0.701 0.701 1.839 0.001 2.54C17.169 39.105 16.71 39.281 16.25 39.281z" fill="#f98e54" data-fill-palette-color="accent"></path><path d="M27.42 71.075c-0.992 0-1.796-0.805-1.796-1.797l0-4.297c0-0.992 0.804-1.795 1.795-1.795l0 0c0.993 0 1.796 0.805 1.796 1.795l0.001 4.297C29.217 70.271 28.413 71.075 27.42 71.075L27.42 71.075z" fill="#f98e54" data-fill-palette-color="accent"></path><path d="M38.591 39.281c-0.46 0-0.919-0.176-1.27-0.525-0.702-0.701-0.702-1.839 0-2.539l3.436-3.435c0.701-0.702 1.838-0.702 2.541 0 0.7 0.701 0.7 1.838-0.001 2.539l-3.436 3.436C39.511 39.105 39.051 39.281 38.591 39.281z" fill="#f98e54" data-fill-palette-color="accent"></path><path d="M42.028 65.059c-0.461 0-0.919-0.175-1.271-0.526l-3.436-3.437c-0.701-0.701-0.701-1.838 0-2.539 0.702-0.701 1.84-0.701 2.54 0l3.438 3.438c0.7 0.701 0.7 1.839-0.001 2.538C42.947 64.884 42.487 65.059 42.028 65.059z" fill="#f98e54" data-fill-palette-color="accent"></path><path d="M38.591 39.281c0.459 0 0.918-0.176 1.27-0.525l3.436-3.436c0.701-0.7 0.701-1.838 0.001-2.539-0.702-0.702-1.84-0.702-2.541 0l-3.436 3.435c-0.702 0.7-0.702 1.838 0 2.539C37.672 39.105 38.131 39.281 38.591 39.281z" fill="#f98e54" data-fill-palette-color="accent"></path><path d="M33.769 55.005c-1.695 1.696-3.95 2.63-6.349 2.63-2.397 0-4.652-0.934-6.35-2.63-3.501-3.501-3.501-9.197 0.001-12.699 1.697-1.697 3.951-2.631 6.349-2.631 2.399 0 4.654 0.934 6.35 2.631 0.751 0.751 1.344 1.618 1.781 2.553h3.854c-0.6-1.9-1.646-3.643-3.094-5.093-2.375-2.375-5.531-3.683-8.89-3.683-3.357 0-6.515 1.309-8.889 3.683-4.9 4.902-4.9 12.876 0 17.778 2.375 2.374 5.531 3.683 8.889 3.683 3.359 0 6.515-1.309 8.889-3.683 1.553-1.553 2.639-3.443 3.212-5.502h-3.782C35.292 53.138 34.63 54.144 33.769 55.005z" fill="#f98e54" data-fill-palette-color="accent"></path><path d="M50.226 47.301l-3.367-4.041c-0.355-0.426-0.865-0.646-1.378-0.646-0.405 0-0.813 0.137-1.149 0.417-0.762 0.634-0.865 1.767-0.229 2.529l0.912 1.095h-5.194-3.651-5.503c-0.992 0-1.795 0.804-1.795 1.795 0 0.992 0.805 1.796 1.795 1.796h5.588 3.627 2.153 3.199l-1.201 1.745c-0.586 0.8-0.411 1.924 0.39 2.511 0.318 0.233 0.691 0.346 1.06 0.346 0.551 0 1.098-0.255 1.45-0.735l3.367-4.603C50.783 48.847 50.754 47.934 50.226 47.301z" fill="#f98e54" data-fill-palette-color="accent"></path></svg></g></svg></g><g></g></svg></g><defs></defs></svg><rect width="395.52" height="187.35507807133263" fill="none" stroke="none" visibility="hidden"></rect></g></svg></g></svg>